<svg version="1.0" xmlns="http://www.w3.org/2000/svg"
 width="408.000000pt" height="612.000000pt" viewBox="0 0 408.000000 612.000000"
 preserveAspectRatio="xMidYMid meet">

<g transform="translate(0.000000,612.000000) scale(0.100000,-0.100000)"
fill="#000000" stroke="none">
<path d="M2827 5377 c-3 -8 -2 -20 3 -27 11 -18 42 -4 38 17 -4 22 -34 29 -41
10z"/>
<path d="M1552 5305 c-93 -36 -220 -104 -226 -122 -6 -14 -4 -14 11 -2 10 8
21 19 25 24 4 6 8 7 8 3 0 -4 30 10 68 31 37 21 95 48 130 60 34 13 62 25 62
27 0 7 -15 3 -78 -21z"/>
<path d="M2056 5201 c-4 -6 0 -11 10 -11 66 0 304 -94 304 -120 0 -5 8 -11 18
-13 16 -4 16 -5 0 -6 -11 -1 -15 -6 -12 -16 4 -10 0 -15 -11 -15 -9 0 -14 -4
-11 -9 4 -5 -3 -7 -15 -4 -11 3 -18 11 -16 17 5 13 -2 14 -95 17 -47 1 -58 4
-43 10 15 7 11 8 -14 4 -18 -3 -38 -5 -43 -5 -6 0 -4 -8 3 -17 13 -15 11 -16
-11 -10 -73 20 -316 30 -433 19 -138 -13 -309 -53 -379 -88 -52 -26 -68 -29
-68 -13 0 17 -64 109 -76 109 -6 0 -19 9 -30 21 -16 18 -27 20 -66 16 -31 -4
-48 -2 -52 6 -2 7 -5 -16 -5 -50 -1 -34 4 -65 9 -68 6 -4 -15 -34 -50 -71 -33
-36 -58 -68 -56 -72 4 -7 -59 -96 -97 -137 -50 -54 -86 -113 -152 -250 -121
-249 -202 -499 -221 -682 -4 -35 -10 -63 -14 -63 -4 0 -13 11 -20 25 -7 13
-18 22 -23 18 -6 -4 -8 2 -5 15 4 12 2 24 -2 27 -29 18 -34 -471 -6 -624 26
-146 63 -267 115 -376 49 -103 99 -190 106 -183 2 2 -9 45 -25 95 -35 109 -51
175 -40 168 4 -3 28 -58 54 -122 41 -103 97 -220 82 -170 -3 9 -23 75 -45 145
-59 189 -88 303 -110 438 -25 146 -26 162 -5 185 14 16 17 53 18 261 2 259 9
305 86 608 20 82 78 225 87 216 3 -2 -11 -53 -31 -113 -19 -60 -44 -154 -55
-209 -20 -95 -51 -334 -44 -334 2 0 27 14 56 30 30 17 56 30 59 30 3 0 8 -82
12 -182 12 -314 40 -509 42 -290 2 210 49 480 130 750 88 292 287 544 556 704
146 87 410 158 586 158 109 0 349 -27 438 -50 87 -22 210 -78 301 -135 119
-77 307 -285 389 -430 101 -181 188 -518 210 -815 11 -141 24 -68 26 150 1
155 3 176 19 188 10 7 27 38 39 70 38 99 19 201 -74 397 -25 53 -40 95 -34 97
6 2 8 13 3 26 -5 18 -10 20 -20 12 -10 -8 -20 2 -45 46 -75 130 -300 366 -417
437 -85 52 -212 110 -308 142 -44 14 -91 34 -105 44 -47 33 -359 76 -374 52z
m-1649 -1503 c-3 -8 -6 -5 -6 6 -1 11 2 17 5 13 3 -3 4 -12 1 -19z"/>
<path d="M1209 5093 c-13 -16 -12 -17 4 -4 9 7 17 15 17 17 0 8 -8 3 -21 -13z"/>
<path d="M3037 5093 c-22 -21 20 -83 56 -83 23 0 40 35 28 59 -15 27 -67 42
-84 24z"/>
<path d="M2070 5051 c0 -5 9 -7 20 -4 11 3 20 7 20 9 0 2 -9 4 -20 4 -11 0
-20 -4 -20 -9z"/>
<path d="M1435 4748 c-24 -14 -35 -28 -35 -48 0 -9 11 -1 26 18 29 36 62 42
87 14 23 -25 21 -34 -11 -65 -23 -22 -35 -26 -63 -22 -22 3 -27 2 -16 -3 10
-4 18 -11 18 -15 -1 -4 -1 -11 -1 -15 0 -5 19 -6 42 -3 34 5 46 12 61 38 19
32 18 33 -4 65 -13 18 -28 36 -34 40 -15 11 -47 9 -70 -4z"/>
<path d="M1633 4654 c4 -4 -2 -17 -14 -30 -18 -19 -19 -25 -7 -43 7 -12 20
-21 28 -21 8 0 -1 -13 -22 -30 -20 -17 -49 -55 -63 -85 -23 -47 -26 -62 -21
-118 6 -76 27 -131 64 -170 64 -67 175 -94 258 -62 82 31 154 114 154 176 0
42 19 14 59 -87 24 -58 45 -130 48 -160 l6 -54 -38 3 c-38 2 -39 1 -50 -42 -6
-25 -16 -46 -22 -48 -6 -2 -30 5 -53 17 -39 20 -43 20 -60 5 -18 -16 -19 -16
-25 11 -5 25 -15 49 -33 87 -2 4 3 7 12 7 19 0 21 16 4 22 -7 3 -30 3 -52 0
-27 -3 -40 -10 -43 -23 -6 -22 -20 -24 -60 -8 -50 20 -84 28 -78 19 3 -4 36
-20 74 -35 38 -14 75 -33 82 -41 7 -9 32 -29 56 -45 23 -16 48 -40 54 -52 19
-34 11 -187 -9 -187 -4 0 -20 19 -36 43 -38 57 -106 106 -177 127 -99 30 -146
78 -175 178 l-13 47 6 -62 c3 -35 3 -63 0 -63 -4 0 -16 10 -27 22 -18 20 -20
31 -15 83 6 52 3 68 -21 120 -21 45 -29 80 -32 143 -3 45 -1 82 4 82 5 0 9 42
9 94 0 154 -15 71 -27 -144 -5 -107 -11 -196 -12 -197 -1 -1 -22 4 -46 11 -71
21 -123 29 -116 17 4 -5 1 -13 -5 -17 -7 -4 -9 -3 -5 4 11 18 -10 22 -33 6
-32 -23 -26 -68 10 -72 15 -2 31 4 40 14 12 16 12 17 -1 9 -13 -8 -13 -7 0 11
8 10 16 21 17 23 1 2 7 -7 12 -20 l10 -24 0 23 c1 18 5 21 24 17 12 -3 40 -9
62 -13 28 -6 41 -14 43 -27 2 -11 16 -49 32 -85 16 -36 31 -82 35 -102 3 -21
10 -40 15 -43 6 -4 7 1 3 11 -3 10 -2 15 3 13 5 -2 34 -16 64 -31 30 -14 77
-36 103 -47 114 -50 257 -191 257 -253 0 -16 -4 -15 -25 11 -15 16 -54 52 -88
79 -50 40 -78 53 -147 71 -118 31 -123 33 -140 33 -22 1 -41 19 -33 31 3 6 1
7 -5 3 -14 -8 -56 63 -73 124 -10 34 -14 40 -17 23 -2 -13 -6 -23 -8 -23 -10
0 -70 33 -87 48 -9 8 -20 12 -25 8 -4 -5 4 -16 18 -25 13 -9 33 -24 42 -33 10
-10 18 -16 18 -13 0 3 9 1 20 -5 11 -6 20 -17 20 -24 0 -25 42 -110 64 -128
31 -27 108 -66 206 -103 148 -57 195 -88 242 -165 29 -48 69 -255 67 -345 l-2
-50 -7 55 c-5 30 -11 75 -15 100 -9 67 -45 181 -65 210 -10 14 -17 27 -16 30
0 3 -17 22 -39 41 -38 34 -81 55 -135 65 -14 3 -71 19 -128 35 -56 16 -107 27
-113 23 -6 -3 -38 24 -72 60 -51 54 -68 67 -97 69 -28 2 -38 8 -49 32 -21 47
-76 88 -106 81 -32 -8 -59 -49 -50 -76 12 -36 48 -53 91 -41 46 13 89 -8 79
-38 -3 -10 2 -28 12 -39 28 -33 197 -99 426 -167 72 -21 95 -33 134 -70 26
-25 44 -47 41 -51 -3 -3 -24 4 -47 15 -63 33 -141 49 -264 57 -64 4 -118 12
-127 19 -24 20 -55 23 -81 10 -19 -11 -29 -11 -52 2 -41 21 -30 3 26 -46 55
-46 73 -50 111 -20 21 16 35 20 61 15 19 -4 35 -9 35 -11 0 -2 -14 -17 -31
-34 -25 -26 -30 -37 -24 -59 10 -40 24 -52 61 -52 68 0 97 69 49 114 -14 13
-25 26 -25 30 0 21 191 -24 269 -64 41 -21 91 -73 91 -95 0 -10 -16 -4 -50 17
-62 39 -92 36 -275 -22 -109 -35 -139 -41 -185 -37 -51 5 -53 5 -35 -9 28 -22
105 -12 245 31 135 41 181 44 232 12 45 -27 71 -60 88 -111 15 -46 18 -158 7
-236 -5 -38 -4 -50 3 -40 8 13 10 13 10 -1 0 -9 -3 -19 -7 -23 -4 -4 -8 -13
-9 -19 -5 -47 -82 -196 -157 -303 -30 -44 -71 -110 -92 -149 -37 -69 -38 -72
-37 -178 1 -160 -1 -157 108 -238 52 -39 94 -73 94 -75 0 -7 -33 12 -55 33
-36 32 -96 75 -101 71 -2 -3 5 -24 17 -47 11 -24 18 -45 15 -49 -3 -3 -6 -3
-6 0 0 3 -31 0 -68 -7 -49 -8 -74 -8 -87 -1 -42 24 -99 84 -127 133 -16 28
-35 56 -43 63 -20 16 -29 -5 -13 -32 7 -14 15 -75 19 -148 6 -146 27 -216 78
-268 l35 -35 150 7 c145 6 153 5 201 -17 83 -40 133 -104 193 -248 6 -16 28
-35 56 -48 39 -20 55 -22 123 -16 43 4 168 2 277 -4 160 -8 206 -7 231 3 38
16 131 119 147 163 7 20 19 33 30 33 29 0 38 34 38 140 0 101 0 102 -31 131
l-31 28 13 75 c17 106 8 209 -23 271 -13 28 -29 49 -34 49 -5 -1 -15 7 -22 17
-8 11 -19 16 -29 12 -12 -5 -14 -3 -8 8 8 12 6 12 -8 0 -18 -14 -25 -13 -89
20 -11 6 -18 5 -18 -1 0 -5 5 -10 11 -10 5 0 8 -4 5 -9 -8 -13 -42 -2 -62 20
-9 10 -14 19 -9 19 4 0 2 7 -5 15 -6 8 -8 20 -4 27 6 11 5 11 -8 0 -14 -11
-20 -9 -40 11 -13 13 -37 27 -53 31 -16 4 -25 10 -19 14 35 26 -6 43 -49 21
l-22 -12 20 23 c19 22 19 23 1 17 -14 -6 -17 -4 -12 9 6 15 4 15 -10 3 -14
-12 -19 -10 -39 13 -13 15 -26 24 -29 20 -4 -3 -4 1 0 11 4 12 10 14 18 8 8
-7 16 -3 26 12 12 20 12 21 -3 8 -14 -11 -20 -11 -32 -1 -21 18 -19 35 3 19
14 -11 13 -10 -2 9 -19 21 -32 30 -22 14 2 -4 1 -14 -4 -22 -7 -11 -11 -11
-24 -1 -18 15 -21 41 -5 41 5 0 7 -5 3 -12 -4 -7 -3 -8 5 -4 9 6 9 11 0 22 -6
7 -15 11 -20 9 -12 -8 -31 32 -27 58 2 12 -2 22 -9 22 -6 0 -15 3 -19 8 -4 4
-2 7 6 7 8 0 9 4 3 13 -51 67 -78 298 -53 467 8 57 14 69 48 102 63 58 87 58
284 3 189 -52 236 -55 291 -15 30 23 31 23 78 6 42 -16 111 -33 222 -56 20 -4
37 -4 37 1 0 14 -62 39 -97 39 -52 0 -170 29 -184 46 -16 19 -29 18 -90 -11
-56 -25 -79 -25 -133 2 -15 8 -25 10 -22 4 9 -14 -24 -14 -61 0 -15 5 -70 21
-123 35 -120 31 -157 27 -216 -28 -48 -44 -52 -43 -28 5 41 80 96 129 174 156
19 7 86 16 147 22 95 8 117 7 142 -6 41 -20 77 -19 131 7 l45 21 -75 12 c-41
6 -82 8 -90 4 -8 -3 -71 -9 -140 -12 -149 -7 -221 -29 -287 -90 -24 -22 -43
-37 -43 -33 0 19 33 67 66 96 49 42 73 52 267 105 177 48 227 64 278 91 39 20
95 64 81 64 -14 0 -129 -45 -178 -69 -40 -19 -124 -39 -124 -29 0 3 25 22 55
42 94 62 134 103 133 137 -1 16 -4 29 -8 29 -9 0 -71 -77 -70 -87 2 -8 -41
-26 -47 -19 -2 2 8 28 23 58 15 29 32 73 39 98 9 38 15 45 39 48 22 3 25 6 16
17 -14 17 -3 38 16 31 11 -4 11 0 -2 19 -15 23 -15 28 6 70 12 25 24 63 27 84
5 38 5 38 -33 44 -64 11 -74 9 -75 -15 0 -13 -6 -38 -13 -57 l-12 -34 -37 74
c-21 41 -35 67 -33 58 2 -9 14 -65 26 -123 19 -90 20 -114 11 -152 -14 -54
-50 -115 -100 -167 -38 -40 -91 -74 -91 -58 0 5 31 45 69 89 54 63 71 90 80
130 17 80 -2 154 -68 256 -28 45 -31 57 -31 130 0 96 -8 113 -40 96 -29 -16
-61 -7 -95 27 -19 19 -26 22 -22 10 11 -30 88 -138 102 -143 20 -8 53 -92 64
-165 23 -138 8 -246 -44 -315 -13 -17 -75 -71 -137 -119 -62 -49 -127 -101
-144 -118 -18 -16 -40 -27 -50 -25 -14 2 -1 21 59 88 114 126 122 146 121 310
-1 174 -38 383 -74 425 -10 11 -28 36 -39 55 l-22 35 7 -30 c4 -16 10 -34 14
-40 12 -17 83 -325 76 -332 -2 -2 -15 15 -29 39 -14 24 -35 52 -47 63 l-23 20
6 -25 c32 -137 34 -309 3 -385 -14 -34 -15 -35 -11 -10 32 197 6 340 -91 507
-42 71 -45 81 -31 90 10 5 17 20 17 33 0 14 8 47 19 74 10 28 16 53 13 56 -4
3 -18 -29 -33 -72 l-26 -78 -17 40 c-10 22 -19 50 -19 63 -2 17 -4 19 -12 9
-12 -16 -51 -13 -88 6 -22 12 -25 16 -12 21 52 20 -80 61 -168 53 -62 -7 -62
-6 -34 11 31 19 34 33 10 54 -19 16 -74 37 -60 22z m197 -114 c8 -5 11 -10 5
-10 -5 0 -17 5 -25 10 -8 5 -10 10 -5 10 6 0 17 -5 25 -10z m21 -23 c-10 -9
-11 -8 -5 6 3 10 9 15 12 12 3 -3 0 -11 -7 -18z m-73 -39 c-3 -7 -18 -14 -35
-16 -17 -2 -48 -18 -71 -38 -22 -18 -44 -34 -48 -34 -4 0 -21 -12 -38 -27 -35
-32 -19 -9 33 47 50 55 171 106 159 68z m115 -240 c-31 -33 -73 -58 -98 -58
-29 0 -15 15 35 38 30 14 56 35 67 53 14 23 19 26 21 14 2 -9 -9 -30 -25 -47z
m-214 16 c13 -19 36 -41 50 -49 19 -11 21 -14 9 -15 -19 0 -98 73 -98 90 0 19
15 9 39 -26z m1053 -286 c6 -17 -1 -38 -13 -38 -5 0 -9 11 -9 25 0 26 14 34
22 13z m-626 -181 c-9 -36 -33 -105 -55 -154 -22 -48 -45 -108 -51 -133 l-12
-45 -23 29 c-35 44 -49 106 -40 174 11 78 9 117 -10 164 -19 49 -13 59 28 47
17 -5 62 -12 100 -14 67 -4 67 -4 68 23 l2 27 4 -26 c2 -15 -3 -56 -11 -92z
m-92 -767 c1 -240 -10 -309 -80 -487 -62 -160 -59 -197 26 -278 l42 -40 -31
59 c-36 68 -37 74 -15 147 l17 54 13 -48 c20 -78 81 -143 239 -252 89 -62 328
-233 425 -304 102 -74 190 -159 206 -198 16 -38 18 -83 4 -83 -5 0 -10 5 -10
11 0 8 -5 8 -15 -1 -12 -10 -15 -10 -15 0 0 8 -3 11 -6 7 -3 -3 -31 14 -61 39
-30 24 -66 52 -81 62 -15 9 -70 49 -122 88 -91 67 -346 252 -495 357 l-70 49
65 -63 c36 -35 69 -62 74 -60 5 2 6 -1 2 -8 -6 -9 -13 -9 -29 3 -12 8 -21 19
-20 25 2 6 -3 8 -10 6 -12 -5 -121 77 -190 143 -46 45 -77 107 -77 155 0 21
18 81 44 140 87 204 110 310 126 562 5 88 13 178 17 200 l7 40 9 -60 c6 -33
10 -152 11 -265z m-124 -277 c-11 -17 -11 -17 -6 0 3 10 6 24 7 30 0 9 2 9 5
0 3 -7 0 -20 -6 -30z m333 -158 c-3 -9 -8 -14 -10 -11 -3 3 -2 9 2 15 9 16 15
13 8 -4z m62 -105 c10 -11 14 -20 9 -20 -5 0 -15 9 -22 20 -7 11 -11 20 -9 20
2 0 12 -9 22 -20z m40 0 c3 -5 1 -10 -4 -10 -6 0 -11 5 -11 10 0 6 2 10 4 10
3 0 8 -4 11 -10z m-542 -67 c-1 -38 -2 -74 -3 -80 0 -16 -22 -12 -36 7 -10 12
-14 12 -28 1 -9 -7 -16 -10 -16 -7 0 18 51 116 60 116 5 0 10 7 10 15 0 8 3
15 8 15 4 0 6 -30 5 -67z m-55 -130 c-14 -37 -58 -53 -58 -22 0 11 5 19 10 19
6 0 9 6 8 13 -2 6 5 11 14 9 9 -1 20 2 23 8 13 21 15 4 3 -27z m857 -23 c3 -5
1 -10 -4 -10 -6 0 -11 5 -11 10 0 6 2 10 4 10 3 0 8 -4 11 -10z"/>
<path d="M1741 2394 c0 -11 3 -14 6 -6 3 7 2 16 -1 19 -3 4 -6 -2 -5 -13z"/>
<path d="M2690 4495 c-20 -24 -4 -65 25 -65 18 0 26 7 31 25 7 27 -9 55 -31
55 -7 0 -18 -7 -25 -15z"/>
<path d="M1443 4435 c0 -27 2 -38 4 -22 2 15 2 37 0 50 -2 12 -4 0 -4 -28z"/>
<path d="M1439 4368 c-1 -7 -1 -16 0 -20 0 -5 -3 -8 -7 -8 -5 0 3 -34 16 -75
14 -41 28 -75 31 -75 8 0 41 113 35 119 -2 3 -10 -1 -16 -7 -19 -19 -25 -14
-37 33 -11 44 -20 57 -22 33z"/>
<path d="M2557 4373 c-17 -16 4 -133 24 -133 4 0 17 8 29 18 25 21 32 81 11
106 -14 16 -52 22 -64 9z"/>
<path d="M2424 4135 c3 -30 9 -80 12 -112 6 -46 4 -58 -10 -68 -15 -11 -12
-13 19 -17 20 -2 38 -2 40 1 14 13 2 90 -26 165 -17 48 -33 86 -36 86 -3 0 -3
-25 1 -55z"/>
<path d="M1966 4123 c-26 -31 -28 -36 -16 -59 11 -20 15 -22 22 -10 5 10 22
13 54 12 25 -1 47 1 49 4 2 4 -15 25 -38 47 l-42 40 -29 -34z"/>
<path d="M2888 4103 c-21 -5 -24 -33 -6 -51 19 -19 73 -14 102 9 25 20 26 22
9 33 -18 12 -71 16 -105 9z"/>
<path d="M3600 4066 c0 -2 7 -22 15 -45 21 -61 24 -143 5 -148 -12 -4 -12 -2
-2 5 9 6 11 18 6 36 -5 20 -9 24 -15 15 -4 -8 -3 -20 4 -29 8 -11 7 -11 -7 1
-15 14 -16 21 -7 38 7 12 8 21 2 21 -5 0 -12 -6 -14 -12 -3 -7 -6 1 -6 17 -1
17 -6 37 -12 45 -8 12 -9 10 -5 -10 3 -14 9 -95 13 -181 9 -218 -8 -290 -33
-144 -8 46 -9 40 -15 -70 -18 -349 -88 -667 -206 -939 -19 -44 -42 -96 -50
-114 -23 -55 3 -27 71 76 78 119 141 237 192 360 34 82 54 112 54 82 0 -11
-62 -235 -85 -307 -21 -65 -8 -51 30 32 126 276 184 631 150 925 -9 84 -18
129 -25 125 -4 -2 -6 11 -3 29 3 31 -41 196 -52 196 -3 0 -5 -2 -5 -4z"/>
<path d="M905 3891 c-7 -65 -1 -101 19 -101 16 0 56 42 56 59 0 12 -57 101
-64 101 -2 0 -7 -27 -11 -59z"/>
<path d="M2888 3919 c-28 -27 -30 -34 -24 -76 9 -65 26 -95 61 -105 63 -17
128 14 141 67 28 111 -100 193 -178 114z"/>
<path d="M3147 3869 c-22 -13 -22 -42 1 -63 18 -15 20 -15 35 2 10 10 17 26
17 35 0 23 -31 38 -53 26z"/>
<path d="M960 3495 c-7 -8 -8 -15 -2 -15 5 0 15 7 22 15 7 8 8 15 2 15 -5 0
-15 -7 -22 -15z"/>
<path d="M1046 3494 c-15 -14 -22 -34 -12 -34 2 0 17 7 32 15 33 17 97 20 124
5 11 -6 40 -39 65 -75 42 -58 50 -65 80 -65 19 0 37 5 41 11 5 8 -1 10 -19 5
-14 -3 -29 -2 -32 4 -3 5 0 10 7 10 7 0 -1 8 -17 18 -17 11 -43 36 -59 56 -16
21 -44 44 -62 52 -46 19 -128 18 -148 -2z"/>
<path d="M2893 3485 c-11 -8 -30 -35 -42 -60 -12 -25 -30 -54 -41 -65 -22 -22
-69 -26 -103 -9 -21 11 -21 10 2 -15 17 -18 35 -26 57 -26 36 0 63 28 103 108
25 50 57 66 101 51 27 -10 30 -15 30 -55 0 -55 33 -94 79 -94 41 0 81 37 81
75 0 53 -3 66 -16 61 -7 -3 -15 1 -17 8 -7 17 -55 26 -81 16 -12 -4 -34 -2
-51 6 -40 17 -76 17 -102 -1z"/>
<path d="M866 3448 c-8 -13 -17 -34 -21 -49 -8 -34 28 -128 63 -162 29 -28 90
-57 120 -57 42 0 120 32 157 63 32 28 44 33 63 26 27 -10 21 5 -7 21 -15 7
-28 2 -62 -24 -75 -60 -179 -72 -238 -28 -35 26 -73 92 -66 117 3 11 7 34 9
50 1 17 6 38 10 48 12 25 -11 21 -28 -5z"/>
<path d="M3240 3402 c0 -50 -20 -94 -64 -141 -29 -32 -29 -33 -5 -17 59 37
104 141 80 182 -9 16 -10 12 -11 -24z"/>
<path d="M1646 3109 c-16 -4 -42 -20 -57 -35 -23 -22 -29 -36 -29 -72 0 -59
49 -112 103 -112 20 0 39 5 42 11 18 28 -1 200 -23 212 -4 2 -20 1 -36 -4z"/>
<path d="M2488 3041 c-46 -23 -73 -65 -72 -111 2 -49 21 -80 66 -104 45 -24
115 -15 158 20 26 23 30 32 30 77 0 29 -6 59 -13 67 -47 57 -116 78 -169 51z"/>
<path d="M1173 2993 c-27 -5 -31 -44 -7 -64 13 -10 17 -10 25 2 7 12 13 71 7
68 -2 -1 -13 -4 -25 -6z"/>
<path d="M1030 2716 c0 -97 4 -156 10 -156 6 0 10 56 10 149 0 89 -4 152 -10
156 -7 4 -10 -48 -10 -149z"/>
<path d="M2630 2552 c-16 -13 -21 -24 -16 -40 15 -46 76 -35 76 14 0 34 -32
48 -60 26z"/>
<path d="M2387 2459 c7 -7 15 -10 18 -7 3 3 -2 9 -12 12 -14 6 -15 5 -6 -5z"/>
<path d="M1313 2424 c-8 -21 13 -42 28 -27 13 13 5 43 -11 43 -6 0 -13 -7 -17
-16z"/>
<path d="M2565 2331 c-9 -15 15 -25 28 -12 9 9 7 10 -7 5 -13 -5 -17 -4 -12 4
4 7 5 12 2 12 -3 0 -7 -4 -11 -9z"/>
<path d="M2604 2288 c-4 -7 -3 -8 5 -4 6 4 20 2 29 -6 15 -12 16 -11 3 5 -16
20 -27 22 -37 5z"/>
<path d="M2713 2245 c0 -8 4 -15 9 -15 4 0 8 4 8 9 0 6 -4 12 -8 15 -5 3 -9
-1 -9 -9z"/>
<path d="M2680 2239 c0 -5 5 -7 10 -4 6 3 10 8 10 11 0 2 -4 4 -10 4 -5 0 -10
-5 -10 -11z"/>
</g>
</svg>